{
  "accessors": [
    {
      "bufferView": 2,
      "componentType": 5126,
      "count": 525,
      "max": [
        3.7382099628448486,
        1.250846028327942,
        6.674384117126465
      ],
      "min": [
        -2.675558090209961,
        -1.250844955444336,
        -0.3059220016002655
      ],
      "type": "VEC3"
    },
    {
      "bufferView": 2,
      "byteOffset": 6300,
      "componentType": 5126,
      "count": 525,
      "max": [
        0.9715828895568848,
        0.9892417788505554,
        0.7403931617736816
      ],
      "min": [
        -0.7507672905921936,
        -0.9952412247657776,
        -0.9928972125053406
      ],
      "type": "VEC3"
    },
    {
      "bufferView": 1,
      "componentType": 5126,
      "count": 525,
      "max": [
        1.0,
        1.0
      ],
      "min": [
        0.0,
        -0.0
      ],
      "type": "VEC2"
    },
    {
      "bufferView": 0,
      "componentType": 5125,
      "count": 900,
      "type": "SCALAR"
    }
  ],
  "asset": {
    "extras": {
      "author": "Megan Obert (https://sketchfab.com/obertmn)",
      "license": "CC-BY-4.0 (http://creativecommons.org/licenses/by/4.0/)",
      "source": "https://sketchfab.com/3d-models/object-7-nail-247c2642f92043cc9e89a9064f2db7c5",
      "title": "Object_7 {Nail}"
    },
    "generator": "Sketchfab-16.73.0",
    "version": "2.0"
  },
  "bufferViews": [
    {
      "buffer": 0,
      "byteLength": 3600,
      "name": "floatBufferViews",
      "target": 34963
    },
    {
      "buffer": 0,
      "byteLength": 4200,
      "byteOffset": 3600,
      "byteStride": 8,
      "name": "floatBufferViews",
      "target": 34962
    },
    {
      "buffer": 0,
      "byteLength": 12600,
      "byteOffset": 7800,
      "byteStride": 12,
      "name": "floatBufferViews",
      "target": 34962
    }
  ],
  "buffers": [
    {
      "byteLength": 20400,
      "uri": "scene.bin"
    }
  ],
  "materials": [
    {
      "doubleSided": true,
      "name": "initialShadingGroup",
      "pbrMetallicRoughness": {
        "metallicFactor": 0.0,
        "roughnessFactor": 0.6
      }
    }
  ],
  "meshes": [
    {
      "name": "Object_0",
      "primitives": [
        {
          "attributes": {
            "NORMAL": 1,
            "POSITION": 0,
            "TEXCOORD_0": 2
          },
          "indices": 3,
          "material": 0,
          "mode": 4
        }
      ]
    }
  ],
  "nodes": [
    {
      "children": [
        1
      ],
      "matrix": [
        1.0,
        0.0,
        0.0,
        0.0,
        0.0,
        2.220446049250313e-16,
        -1.0,
        0.0,
        0.0,
        1.0,
        2.220446049250313e-16,
        0.0,
        0.0,
        0.0,
        0.0,
        1.0
      ],
      "name": "Sketchfab_model"
    },
    {
      "children": [
        2
      ],
      "name": "1bd282935fe04e9094f9292b9413a361.obj.cleaner.materialmerger.gles"
    },
    {
      "mesh": 0,
      "name": "Object_2"
    }
  ],
  "scene": 0,
  "scenes": [
    {
      "name": "Sketchfab_Scene",
      "nodes": [
        0
      ]
    }
  ]
}
